<svg xmlns="http://www.w3.org/2000/svg" width="40" height="40" viewBox="0 0 40 40">
    <path fill="#FFFFFF" d="M20 0C8.972 0 0 8.972 0 20s8.972 20 20 20 20-8.972 20-20S31.028 0 20 0zm8.09 25.732c.325.326.325.853 0 1.179l-1.18 1.178c-.325.325-.852.325-1.178 0L20 22.357l-5.732 5.732c-.326.326-.853.326-1.179 0l-1.178-1.178c-.326-.326-.326-.853 0-1.179L17.643 20l-5.732-5.732c-.326-.326-.326-.853 0-1.179l1.178-1.178c.326-.326.853-.326 1.179 0L20 17.643l5.732-5.732c.326-.326.853-.326 1.179 0l1.178 1.178c.326.325.326.853 0 1.179L22.357 20l5.732 5.732z"/>
</svg>
