<svg xmlns="http://www.w3.org/2000/svg" width="69" height="69" viewBox="0 0 69 69">
    <g fill="none" fill-rule="evenodd">
        <rect width="69" height="69" fill="#FFF" rx="16"/>
        <path fill="#000" fill-rule="nonzero" d="M37.41 44.05c-.387-.385-.387-1.01 0-1.395.388-.386 1.015-.386 1.403 0l.379.377c.387.385.387 1.01 0 1.395-.193.192-.447.289-.7.289-.255 0-.508-.096-.702-.289l-.38-.377zm-7-21.054c.092 0 .18-.013.264-.036v.183c0 .545.444.986.991.986.548 0 .992-.441.992-.986v-1.535h4.686v1.535c0 .545.444.986.992.986.547 0 .991-.441.991-.986v-.183c.084.023.173.036.264.036.548 0 .991-.442.991-.987v-2.774c0-.545-.443-.987-.991-.987-.091 0-.18.013-.264.036V18.1c0-.545-.444-.987-.991-.987-.548 0-.992.442-.992.987v1.535h-4.686V18.1c0-.545-.444-.987-.992-.987-.547 0-.991.442-.991.987v.183c-.084-.023-.172-.036-.264-.036-.547 0-.991.442-.991.987v2.774c0 .545.444.987.991.987zm1.099 21.72c.254 0 .507-.096.7-.29l.38-.376c.387-.386.387-1.01 0-1.395-.387-.386-1.015-.386-1.402 0l-.38.377c-.386.385-.386 1.01 0 1.395.194.192.448.289.702.289zm21.156-11.94v17.146h2.344c.547 0 .991.442.991.987v4.105c0 .544-.444.986-.991.986H14.99c-.547 0-.991-.442-.991-.986v-4.105c0-.545.444-.987.991-.987h2.344V32.776H14.99c-.547 0-.991-.442-.991-.987V21.23c0-.545.444-.986.991-.986h8.898c.136-1.97 1.332-3.782 3.401-5.137C29.364 13.748 32.102 13 35 13c2.898 0 5.636.748 7.71 2.106 2.07 1.355 3.265 3.167 3.4 5.137h8.899c.547 0 .991.441.991.986v10.56c0 .545-.444.987-.991.987h-2.344zM25.86 20.622c0 .15.01.305.031.457l.004.027c.412 2.898 4.408 5.165 9.106 5.165 4.698 0 8.694-2.267 9.106-5.164l.004-.027c.02-.155.031-.309.031-.458 0-1.43-.895-2.803-2.521-3.868-1.754-1.149-4.105-1.781-6.62-1.781-2.515 0-4.866.632-6.62 1.78-1.625 1.066-2.52 2.44-2.52 3.869zm-9.876 31.273v2.132h38.034v-2.132H15.983zm28.576-15.722v13.75h6.124V32.775H19.318v17.146h6.123v-13.75c0-.544.444-.986.992-.986h17.134c.548 0 .992.442.992.987zm-8.567.986v12.763h6.584V37.16h-6.584zm-8.568 0v12.763h6.585V37.16h-6.585zm26.593-6.356v-8.588h-8.133c-1.063 3.491-5.54 6.029-10.884 6.029-5.343 0-9.821-2.537-10.884-6.029h-8.133v8.588H54.017z" opacity=".3"/>
    </g>
</svg>
